<svg width="20" height="20" viewBox="0 0 20 20" fill="none" xmlns="http://www.w3.org/2000/svg">
<path d="M15 6.87678H12.5V9.37678H11.2512V1.87439H3.7512V10.3367C3.37118 10.5558 3.05551 10.871 2.83589 11.2508C2.61627 11.6305 2.50043 12.0613 2.5 12.5V17.5024H6.2512V14.3768H8.75119V17.5024H17.5V9.38394C17.5009 9.05504 17.437 8.72918 17.3118 8.42503C17.1865 8.12089 17.0025 7.84445 16.7703 7.61154C16.5381 7.37864 16.2621 7.19385 15.9584 7.06776C15.6546 6.94168 15.3289 6.87678 15 6.87678ZM10 6.87678H8.1256V8.75118H6.87441V6.87678H5V5.62558H6.87441V3.75118H8.1256V5.62558H10V6.87678ZM15.6256 14.9952H11.8744V13.7512H15.6328L15.6256 14.9952ZM15.6256 12.4952H11.8744V11.2512H15.6328L15.6256 12.4952ZM15.6256 9.99521H13.7512V8.75118H15.6328L15.6256 9.99521Z" fill="#03050F"/>
</svg>
