<svg width="20" height="20" viewBox="0 0 20 20" fill="none" xmlns="http://www.w3.org/2000/svg">
<path d="M13.1254 5.62561V6.87681C13.1254 7.70577 12.7961 8.50078 12.2099 9.08694C11.6238 9.6731 10.8287 10.0024 9.99978 10.0024C9.58932 10.0024 9.18289 9.92156 8.80367 9.76448C8.42446 9.60741 8.07989 9.37718 7.78965 9.08694C7.49941 8.7967 7.26918 8.45214 7.11211 8.07292C6.95503 7.69371 6.87419 7.28727 6.87419 6.87681V5.62561C6.87482 4.79685 7.20432 4.00221 7.79035 3.41618C8.37637 2.83015 9.17102 2.50065 9.99978 2.50002C10.8285 2.50065 11.6232 2.83015 12.2092 3.41618C12.7952 4.00221 13.1247 4.79685 13.1254 5.62561ZM16.251 14.3768V17.5024H3.75098V14.3768C3.75074 13.3844 3.98743 12.4062 4.44136 11.5237C4.89529 10.6412 5.55335 9.87977 6.36081 9.30279C6.7603 9.90182 7.30142 10.3931 7.93618 10.7329C8.57095 11.0728 9.27976 11.2508 9.99978 11.2512C10.7198 11.2508 11.4286 11.0728 12.0634 10.7329C12.6982 10.3931 13.2393 9.90182 13.6388 9.30279C14.4465 9.87965 15.1049 10.641 15.5593 11.5235C16.0136 12.406 16.2507 13.3842 16.251 14.3768ZM14.9998 13.7512H13.751V12.5024H12.4998V13.7512H11.251V15.0024H12.4998V16.2512H13.751V15.0024H14.9998V13.7512Z" fill="#03050F"/>
</svg>
