<?xml version="1.0" encoding="UTF-8"?>
<svg version="1.1" xmlns="http://www.w3.org/2000/svg" width="180" height="180">
<path d="M0 0 C1.55269844 -0.01007584 1.55269844 -0.01007584 3.13676453 -0.02035522 C6.54736173 -0.03929948 9.9577617 -0.04325792 13.3684082 -0.04541016 C15.75104349 -0.05184151 18.133678 -0.05857012 20.51631165 -0.06558228 C25.50861439 -0.07754681 30.50084799 -0.08126403 35.49316406 -0.08007812 C41.86710831 -0.07987521 48.24060534 -0.10715355 54.61444378 -0.14162254 C59.53634141 -0.1639438 64.45813241 -0.16791402 69.38007545 -0.16685867 C71.72864126 -0.16920767 74.07721032 -0.17799132 76.42572594 -0.19352341 C94.97133765 -0.30467443 108.16833005 0.78588434 122.32543945 14.01318359 C130.94758864 23.31718642 133.78376877 34.49866726 133.7722168 46.80883789 C133.77893402 47.84397018 133.78565125 48.87910248 133.79257202 49.94560242 C133.81151628 53.35619962 133.81547472 56.76659959 133.81762695 60.17724609 C133.8240583 62.55988138 133.83078691 64.94251589 133.83779907 67.32514954 C133.84976361 72.31745228 133.85348083 77.30968588 133.85229492 82.30200195 C133.852092 88.6759462 133.87937035 95.04944323 133.91383934 101.42328167 C133.9361606 106.3451793 133.94013082 111.2669703 133.93907547 116.18891335 C133.94142447 118.53747915 133.95020811 120.88604821 133.9657402 123.23456383 C134.07689123 141.78017554 132.98633245 154.97716794 119.7590332 169.13427734 C110.45503038 177.75642653 99.27354953 180.59260666 86.96337891 180.58105469 C85.92824661 180.58777191 84.89311432 180.59448914 83.82661438 180.60140991 C80.41601717 180.62035417 77.00561721 180.62431261 73.5949707 180.62646484 C71.21233541 180.63289619 68.82970091 180.6396248 66.44706726 180.64663696 C61.45476451 180.6586015 56.46253091 180.66231872 51.47021484 180.66113281 C45.0962706 180.66092989 38.72277356 180.68820824 32.34893513 180.72267723 C27.4270375 180.74499849 22.5052465 180.74896871 17.58330345 180.74791336 C15.23473765 180.75026236 12.88616859 180.759046 10.53765297 180.77457809 C-8.00795875 180.88572912 -21.20495115 179.79517034 -35.36206055 166.56787109 C-43.98420974 157.26386827 -46.82038987 146.08238742 -46.80883789 133.7722168 C-46.81555511 132.7370845 -46.82227234 131.70195221 -46.82919312 130.63545227 C-46.84813737 127.22485506 -46.85209581 123.8144551 -46.85424805 120.40380859 C-46.8606794 118.0211733 -46.86740801 115.6385388 -46.87442017 113.25590515 C-46.8863847 108.2636024 -46.89010192 103.2713688 -46.88891602 98.27905273 C-46.8887131 91.90510849 -46.91599144 85.53161145 -46.95046043 79.15777302 C-46.97278169 74.23587539 -46.97675192 69.31408439 -46.97569656 64.39214134 C-46.97804556 62.04357554 -46.98682921 59.69500648 -47.0023613 57.34649086 C-47.11351232 38.80087914 -46.02295355 25.60388675 -32.7956543 11.44677734 C-23.49165147 2.82462815 -12.31017063 -0.01155198 0 0 Z " fill="#F7052D" transform="translate(46.518310546875,-0.29052734375)"/>
<path d="M0 0 C1 1 1 1 1.19921875 3.65673828 C0.97986046 7.33797908 0.12346017 10.05091704 -1.1875 13.4921875 C-1.63867188 14.69101563 -2.08984375 15.88984375 -2.5546875 17.125 C-3.03624441 18.37508243 -3.51801794 19.62508143 -4 20.875 C-4.48267475 22.14809516 -4.96445468 23.42152996 -5.4453125 24.6953125 C-6.62145444 27.80032721 -7.80659427 30.90158864 -9 34 C-8.49065918 33.72027344 -7.98131836 33.44054687 -7.45654297 33.15234375 C2.03765608 27.94361889 11.54543143 22.76269756 21.10546875 17.67578125 C21.78673828 17.31322235 22.46800781 16.95066345 23.16992188 16.57711792 C26.56430524 14.77166232 29.96027948 12.96925852 33.35791016 11.16992188 C34.60971491 10.50523543 35.86150594 9.84052314 37.11328125 9.17578125 C38.22485596 8.58708252 39.33643066 7.99838379 40.48168945 7.3918457 C42.86719276 6.22508335 42.86719276 6.22508335 44 5 C48.70191375 4.86399423 52.13154575 5.38484491 56 8.125 C58.43526653 11.62569564 59 13.74104703 59 18 C58.12725972 21.35669337 57.19570288 23.2487364 54.20751953 25.1262207 C45.88349611 29.21816185 37.29604716 32.62495204 28.6875 36.0625 C25.38583303 37.38451881 22.08513366 38.70892582 18.78515625 40.03515625 C17.54925751 40.53144028 17.54925751 40.53144028 16.28839111 41.03775024 C10.95371945 43.18828441 5.6536479 45.40833166 0.37109375 47.68359375 C-0.9558924 48.25075899 -2.28295731 48.81774002 -3.61010742 49.38452148 C-6.06525063 50.433539 -8.50866339 51.50169153 -10.95043945 52.58227539 C-21.15008739 56.93385541 -21.15008739 56.93385541 -27 55 C-29 53 -29 53 -29.41015625 49.9765625 C-28.86940876 44.73388679 -26.89105973 40.98279751 -24.4375 36.375 C-23.98584473 35.50069336 -23.53418945 34.62638672 -23.06884766 33.72558594 C-21.72842367 31.14167043 -20.36811211 28.56934405 -19 26 C-18.6169873 25.27651367 -18.23397461 24.55302734 -17.83935547 23.80761719 C-15.92085411 20.18936773 -13.97029443 16.59037914 -12 13 C-19.89231177 15.90297242 -27.6353298 19.08772096 -35.3515625 22.42578125 C-36.26492371 22.8207077 -37.17828491 23.21563416 -38.11932373 23.62252808 C-41.92912797 25.27239926 -45.73740196 26.92572585 -49.54345703 28.58422852 C-52.3524639 29.8069866 -55.1642849 31.02306859 -57.9765625 32.23828125 C-58.83899567 32.61632401 -59.70142883 32.99436676 -60.58999634 33.38386536 C-61.38868134 33.72810043 -62.18736633 34.07233551 -63.01025391 34.42700195 C-63.7105069 34.731689 -64.41075989 35.03637604 -65.13223267 35.35029602 C-67 36 -67 36 -70 36 C-69.8828125 33.7109375 -69.8828125 33.7109375 -69 31 C-66.4921875 29.2890625 -66.4921875 29.2890625 -62.875 27.625 C-61.42302708 26.94042223 -59.97121966 26.25549338 -58.51953125 25.5703125 C-57.67084473 25.1774707 -56.8221582 24.78462891 -55.94775391 24.37988281 C-52.49428493 22.76326805 -49.06435969 21.10010925 -45.63671875 19.4296875 C-39.592117 16.48499499 -33.53955987 13.557472 -27.48043823 10.64277649 C-23.77806755 8.86065134 -20.08319674 7.06420564 -16.39453125 5.25390625 C-14.88818221 4.52310478 -13.38168912 3.79260007 -11.875 3.0625 C-11.2260376 2.73894531 -10.5770752 2.41539063 -9.90844727 2.08203125 C-6.47905271 0.4367445 -3.81597028 -0.45428218 0 0 Z " fill="#FEF9FA" transform="translate(98,62)"/>
</svg>
